<?xml version="1.0" encoding="utf-8"?>
<!-- Generator: Adobe Illustrator 19.0.0, SVG Export Plug-In . SVG Version: 6.00 Build 0)  -->
<svg version="1.1" id="Layer_1" xmlns="http://www.w3.org/2000/svg" xmlns:xlink="http://www.w3.org/1999/xlink" x="0px" y="0px"
	 viewBox="0 0 496.3 166.5" style="enable-background:new 0 0 496.3 166.5;" xml:space="preserve">
<style type="text/css">
	.st0{fill:#1F5EA1;}
	.st1{fill:#FFFFFF;}
	.st2{fill:#215EA8;}
	.st3{fill:#00BCF2;}
</style>
<g>
	<path class="st0" d="M435.7,94.4h8.2c4.9,0,7.9-0.3,9.3-0.9c1.5-0.6,2.3-1.6,2.3-3.5v-9c0-2-0.6-3-1.6-3.5c-1.4-0.7-4.7-1.2-10-1.2
		h-8.2c-5.4,0-8.6,0.5-10,1.2c-1,0.5-1.6,1.5-1.6,3.5v9c0,1.9,0.8,3,2.3,3.5C427.8,94.1,430.8,94.4,435.7,94.4 M443.8,99.5h-8.2
		c-7.2,0-12.5-0.6-15.7-1.9c-3.4-1.4-5.2-3.9-5.2-7.5v-9c0-3.7,1.7-6.3,5-7.8c3.1-1.4,8.5-2,15.9-2h8.2c7.5,0,12.9,0.6,16,2
		c3.3,1.4,5,4.1,5,7.8v9c0,3.6-1.9,6.1-5.3,7.5C456.3,98.9,451,99.5,443.8,99.5 M163.1,76.6l-17,0h-14.9v-5H162
		c5.7,0,10.3,0.5,13.5,1.4c5.4,1.6,8.5,4.7,8.5,9.5v6c0,3.4-1.7,6-4.8,7.8c-3.6,2-8.8,2.9-15.5,2.9h-32.3V82.7h9.3v11.6H162
		c5.6,0,9.1-0.7,10.8-1.9c1.2-0.8,1.9-2.1,1.9-4.3v-6.6c0-0.8-0.4-1.7-1.5-2.6C171.2,77.4,168,76.6,163.1,76.6 M230.2,94.2v5h-41.4
		V71.5h41.4v5h-32.1v6h30.7v4.9h-30.7v6.7H230.2z M284.8,99.3h-9.3v-6.6c0-1.3-0.4-2-1.3-2.4c-1.2-0.6-3.7-1-7.7-1h-20.8v10.1h-9.3
		V71.5h29.2c6.8,0,11.7,0.5,14.7,1.5c3.4,1.2,5.4,3.6,5.4,7c0,2.3-0.6,4.2-2.2,5.5c-0.3,0.2-0.6,0.4-1,0.6l-1.1,0.6l1.1,0.6
		c1.4,0.8,2.4,2.1,2.4,3.9V99.3z M245.7,76.6v7.6h19.9c5.1,0,8.1-0.5,9.4-1.1c0.7-0.4,1.3-1.2,1.3-3.3c0-1.4-0.5-2-1.1-2.3
		c-1.3-0.6-4.4-0.9-9.5-0.9H245.7z M302.6,99.3h-9.3V71.5h9.3V99.3z M314.5,71.5L333.1,94l18.5-22.4h10.7l-23.7,27.7h-10.9
		l-23.8-27.7H314.5z M387.9,71.4h5.7c6.2,0,10.7,0.6,13.5,1.9c2.8,1.3,4.3,3.6,4.3,6.7l0,2.1H402v-2c0-1.4-0.5-2.2-1.3-2.6
		c-1.2-0.6-3.9-1-8.1-1h-3.9c-7.5,0-12.3,0.3-14.7,0.9c-2.6,0.7-3.3,1.8-3.3,3.1v6.9c0,3.2,0.6,4.8,1.3,5.4c1.2,1,4.1,1.7,9.5,1.7
		h8.2c5.2,0,8.5-0.2,10.1-0.5c2.5-0.5,3.1-1.5,3.1-2.4v-3.3h9.3v3.6c0,3.6-2.8,5.6-6.9,6.6c-3.1,0.7-8.2,1.1-15.3,1.1h-9.7
		c-5.8,0-10.5-0.7-13.8-2.3c-3.2-1.5-5.1-3.8-5.1-6.9v-9.7c0-4.2,3.1-6.7,8-7.9C373.1,71.8,379.3,71.4,387.9,71.4"/>
	<path class="st1" d="M105,44.6l11.3,19.6c1,1.8,1,4.1,0,5.8l-9,15.6l9.1,15.7c1,1.7,1,4.1,0,5.8L105,126.8c-1,1.7-3,2.9-5.1,2.9
		H77.3c-2,0-4.1-1.2-5.1-2.9l-9-15.7H45.1c-2,0-4-1.2-5.1-2.9L28.7,88.6c-1-1.7-1-4.1,0-5.8l11.3-19.6c1-1.8,3-2.9,5.1-2.9h18
		l9-15.6c1-1.7,3-2.9,5.1-2.9h22.6C101.9,41.6,103.9,42.8,105,44.6"/>
	<path class="st2" d="M99.9,44.6c1,0,2,0.6,2.5,1.4l11.3,19.6c0.5,0.8,0.5,2,0,2.9l-9.9,17.1l9.9,17.2c0.5,0.8,0.5,2,0,2.9
		l-11.3,19.6c-0.5,0.8-1.5,1.4-2.5,1.4H77.3c-1,0-2-0.6-2.5-1.4l-9.9-17.1H45.1c-1,0-2-0.6-2.5-1.4L31.3,87.1c-0.5-0.8-0.5-2,0-2.9
		l11.3-19.6c0.5-0.8,1.5-1.4,2.5-1.4h19.8l9.9-17.1c0.5-0.8,1.5-1.4,2.5-1.4H99.9z"/>
	<path class="st1" d="M66,65.1L76.5,47c0.1-0.2,0.5-0.5,0.8-0.5h22.6c0.3,0,0.7,0.2,0.8,0.5L112,66.6c0.1,0.2,0.1,0.7,0,0.9
		l-10.4,18.1l10.5,18.2c0.1,0.2,0.1,0.7,0,0.9l-11.3,19.6c-0.1,0.2-0.5,0.5-0.8,0.5H77.3c-0.3,0-0.7-0.2-0.8-0.5l-10.5-18.1H45.1
		c-0.3,0-0.7-0.2-0.8-0.5L33,86.1c-0.1-0.2-0.1-0.7,0-0.9l11.3-19.6c0.1-0.2,0.5-0.5,0.8-0.5H66z"/>
	<polygon class="st3" points="108.8,104.2 99,121.2 89.4,104.4 99.2,87.4 	"/>
	<polygon class="st3" points="97.1,84.6 97.7,85.7 97.1,86.7 88.2,102.3 78.9,86.1 88.4,69.4 	"/>
	<polygon class="st3" points="99.1,50.4 108.8,67.1 99.1,83.9 89.6,67.3 	"/>
	<polygon class="st3" points="69,66.1 78.5,49.6 98,49.6 88.8,66.1 	"/>
	<polygon class="st3" points="67,68.9 67.4,68.2 69,68.2 87.6,68.2 77.9,85.3 57.5,85.3 	"/>
	<polygon class="st3" points="36.4,85.3 46.3,68.1 65,68.1 55.1,85.3 	"/>
	<polygon class="st3" points="65,103.2 46.3,103.2 36.7,86.5 55.4,86.5 	"/>
	<polygon class="st3" points="69,103.2 67.4,103.2 67,102.4 57.8,86.5 77.7,86.5 87.2,103.2 	"/>
	<polygon class="st3" points="97.8,121.7 78.5,121.7 69,105.3 88.4,105.3 	"/>
</g>
</svg>
