<?xml version="1.0" encoding="utf-8"?>
<!-- Generator: Adobe Illustrator 19.0.0, SVG Export Plug-In . SVG Version: 6.00 Build 0)  -->
<svg version="1.1" id="Layer_1" xmlns="http://www.w3.org/2000/svg" xmlns:xlink="http://www.w3.org/1999/xlink" x="0px" y="0px"
	 viewBox="0 0 389 211" style="enable-background:new 0 0 389 211;" xml:space="preserve">
<style type="text/css">
	.st0{fill-rule:evenodd;clip-rule:evenodd;fill:#ED1C24;}
</style>
<path class="st0" d="M37.6,144.9c0,4.2-3.7,6.4-3.7,6.4l20.6,0c-0.7,0-4.6-3.6-4.6-6.6c0-2.3,0-29.1,0-29.1l17,0c0,0,5.2,0.7,5.2,3
	c0,2.3,0-10.6,0-10.6H49.9V87c0,0,20.4,0,21.6,0c1.2,0,5.7,2.1,5.9,4.6c0.2,2.5,0-12,0-12h-44c0,0,4,2.5,4.2,6.6
	C37.8,90.2,37.6,140.7,37.6,144.9"/>
<path class="st0" d="M147.2,79.5c0.7,0,4.6,2.9,4.4,6.6c0,2.7,0,68.3,0,69.9c0,1.6-2.1,17.2-11.4,23.6c-0.2,0.1,9.8-1.4,16.5-8.2
	c1.1-1.1,7.3-5.3,7.3-20.2c0-16-0.1-61-0.1-65.3c0-4.8,4.8-6.5,4.8-6.5H147.2z"/>
<path class="st0" d="M85.7,86.2c0.2-3.7-3.4-6.6-4.1-6.6c-3.7,0,21.5,0,21.5,0s-4.5,2.7-4.5,6.4c0,2.4,0.1,37.8,0.1,44
	c0,6.2,3.5,14.9,14,14.9c8.2,0,11.9-8.7,11.9-14.9c0-5.3-0.1-39.9-0.1-43.7c0.2-3.7-3.4-6.7-4.1-6.7c-3.7,0,21.4,0,21.4,0
	s-4.5,2.4-4.5,6.1c0,2.4,0,44.7,0,44.7c0,0-0.1,8-4.7,13.3c-3.5,4-9.5,8.6-19.6,8.8c-11.7,0.2-17-3.9-22.1-8.9
	c-3.7-3.6-4.7-10.8-4.8-13.8C85.7,123.9,85.7,88.4,85.7,86.2"/>
<path class="st0" d="M300.6,86.2c0.2-3.7-3.4-6.6-4.1-6.6c-3.7,0,21.5,0,21.5,0s-4.5,2.7-4.5,6.4c0,2.4,0.1,37.8,0.1,44
	c0,6.2,3.6,14.9,14,14.9c8.2,0,11.9-8.7,11.9-14.9c0-5.3-0.1-39.9-0.1-43.7c0.2-3.7-3.4-6.7-4.1-6.7c-3.7,0,21.4,0,21.4,0
	c0,0-4.5,2.4-4.5,6.1c0,2.4,0,44.7,0,44.7c0,0-0.1,8-4.7,13.3c-3.5,4-9.5,8.6-19.6,8.8c-11.7,0.2-17-3.9-22.1-8.9
	c-3.7-3.6-4.7-10.8-4.9-13.8C300.6,123.9,300.6,88.4,300.6,86.2"/>
<path class="st0" d="M190.1,144.7c0,3.9,4.6,6.6,4.8,6.6c3.7,0-21.4,0-21.4,0c0,0,4.4-2.7,4.4-6.5c0-2.3,0-56.4,0-58.7
	c0.2-3.7-3.7-6.6-4.4-6.6c-3.7,0,21.4,0,21.4,0s-4.8,2.7-4.8,6.4C190.1,88.3,190.1,142.5,190.1,144.7"/>
<path class="st0" d="M216.1,87.3c0,2.3,0.1,55.5,0.1,57.8c0,3.7-4.5,6.2-4.5,6.2c0,0,25.2,0,21.4,0c-0.2,0-4.4-2.7-4.4-6.6
	c0-2.3,0.2-57.2,0.2-57.2c0-0.5,8.2-0.4,10.5-0.3c1.6,0,5,1,5.6,5.1c0.2,1.3,4.4-12.8,4.4-12.8h-49.8l-4.2,14c0,0,5.1-6.2,7.4-6.2
	C205.9,87.4,216.1,87.3,216.1,87.3"/>
<path class="st0" d="M252,151.3l-3.9-13.6c0,0,6,7.1,16.7,7.6c10.6,0.5,13.9-4.6,14.9-5.7c1-1.1,6.6-8.3-1.9-13.6
	c-9.3-5.7-17.6-8.9-21.3-12c-3.7-3.2-9-10.1-6.9-20c2.1-9.9,12.9-14.2,17.3-14.9c4.5-0.7,16.4-0.5,21,1.2c0.3,0.5,0,11,0,11
	c-0.3,0.7-1.8-5.1-12.8-5.3c-11-0.2-12.8,7.3-13,7.8c-0.2,0.5-3.2,8.4,5.5,12.8c8.7,4.4,17.3,7.2,23.6,15.1c7.3,9,0.8,20.7-1.2,23
	c-3,3.4-11.7,8.5-21.2,8.5C256.1,153.1,252.1,151.5,252,151.3"/>
<path class="st0" d="M203.8,44.5c0.3,8.3-5.1,20.1-19.9,20.4c-11,0.2-16.3-8.4-17.5-9.8c-1.2-1.4-3.9-6.7-10.6-6.9
	c-6.7-0.2-9.8,6-9.9,9.2c-0.2,3.2,1.2,11,10.1,11.2c8.1,0.2,12.1-8.5,12.1-8.5v9c0,0-4.3,5.1-11.9,5.3c-7.6,0.2-16.7-6.2-16.3-17.4
	c0.4-11.2,11.5-15.1,16.7-14.9c5.2,0.2,9.6,2.7,13.5,8c3.9,5.3,9,9.6,16.5,8.1c4.5-0.9,11.3-4.4,11.3-14.2c0-9.7-10-13.3-14-13.3
	c-2.6,0-6,0.7-9.9,4.4c-3.9,3.7-5.7,9.4-5.7,9.4V32.8c0,0,6-8,15.1-8.2C192.2,24.4,203.3,31.7,203.8,44.5"/>
</svg>
