<?xml version="1.0" encoding="utf-8"?>
<!-- Generator: Adobe Illustrator 18.0.0, SVG Export Plug-In . SVG Version: 6.00 Build 0)  -->
<!DOCTYPE svg PUBLIC "-//W3C//DTD SVG 1.1//EN" "http://www.w3.org/Graphics/SVG/1.1/DTD/svg11.dtd">
<svg version="1.1" id="Layer_1" xmlns="http://www.w3.org/2000/svg" xmlns:xlink="http://www.w3.org/1999/xlink" x="0px" y="0px"
	 viewBox="0 0 601.586 315.599" enable-background="new 0 0 601.586 315.599" xml:space="preserve">
<g>
	<g>
		<polygon points="227.329,117.93 241.871,117.93 273.794,169.048 273.794,117.93 289.532,117.93 289.532,195.922 275.094,195.922 
			243.067,145.241 243.067,195.922 227.329,195.922 		"/>
		<path d="M325.334,197.669c-9.119,0-16.18-2.62-21.171-7.866c-4.996-5.241-7.492-12.743-7.492-22.502
			c0-4.658,0.671-8.865,2.007-12.613c1.341-3.749,3.26-6.92,5.755-9.504c2.496-2.584,5.522-4.57,9.062-5.953
			c3.546-1.383,7.497-2.074,11.838-2.074c4.414,0,8.391,0.691,11.942,2.074c3.546,1.383,6.567,3.369,9.067,5.953
			c2.496,2.584,4.393,5.755,5.698,9.504c1.3,3.749,1.95,7.955,1.95,12.613c0,4.736-0.665,8.979-2.007,12.728
			c-1.341,3.754-3.255,6.936-5.75,9.556c-2.501,2.626-5.522,4.627-9.067,6.01C333.621,196.977,329.675,197.669,325.334,197.669
			 M325.334,185.435c4.341,0,7.58-1.565,9.717-4.695c2.132-3.13,3.203-7.612,3.203-13.44c0-5.823-1.071-10.268-3.203-13.325
			c-2.137-3.057-5.376-4.586-9.717-4.586c-4.341,0-7.58,1.529-9.717,4.586c-2.137,3.057-3.203,7.502-3.203,13.325
			c0,5.901,1.05,10.398,3.151,13.492C317.66,183.886,320.915,185.435,325.334,185.435"/>
		<path d="M361.328,138.405h14.766v9.4c3.556-9.733,18.582-9.546,19.304-9.4v12.826c-1.243-0.026-4.877-0.473-9.452,0.884
			c-4.622,1.367-9.416,4.461-9.416,10.809v32.989h-15.202V138.405z"/>
		<path d="M410.62,151.291h-10.419l-0.005-12.826h10.424v-15.182h15.197v15.182h13.029v12.826h-13.029v25.403
			c0,2.99,0.613,5.007,1.846,6.067c1.232,1.05,2.823,1.581,4.778,1.581c1.014,0,2.043-0.052,3.094-0.161
			c1.05-0.114,2.08-0.312,3.093-0.603l3.249,10.908c-2.1,0.655-5.225,1.451-7.211,1.705c-1.996,0.255-3.894,0.385-5.698,0.385
			c-6.229,0-10.84-1.492-13.845-4.476c-3-2.99-4.502-8.012-4.502-15.072V151.291z"/>
		<path d="M483.45,188.71c-2.246,2.553-4.762,4.627-7.549,6.229c-2.787,1.601-6.39,2.402-10.799,2.402
			c-2.532,0-4.939-0.328-7.222-0.983c-2.277-0.655-4.268-1.674-5.969-3.057c-1.7-1.383-3.062-3.151-4.071-5.303
			c-1.014-2.142-1.523-4.71-1.523-7.695c0-3.936,0.868-7.138,2.61-9.613c1.731-2.475,4.014-4.404,6.837-5.792
			c2.823-1.383,5.989-2.366,9.499-2.948c3.509-0.582,7.071-0.946,10.689-1.092l7.279-0.328v-2.844c0-3.494-0.962-5.896-2.88-7.206
			c-1.918-1.31-4.175-1.965-6.785-1.965c-6.005,0-9.442,2.293-10.31,6.878l-13.897-1.31c1.014-5.969,3.619-10.284,7.814-12.941
			c4.196-2.657,9.842-3.988,16.939-3.988c4.341,0,8.033,0.53,11.069,1.586c3.042,1.055,5.485,2.563,7.331,4.528
			c1.846,1.97,3.182,4.352,4.019,7.159c0.832,2.802,1.248,5.948,1.248,9.447v36.046H483.45V188.71z M483.122,170.472l-6.728,0.328
			c-3.187,0.146-5.761,0.473-7.71,0.983c-1.955,0.51-3.457,1.144-4.508,1.908c-1.045,0.764-1.757,1.664-2.116,2.678
			c-0.364,1.024-0.541,2.147-0.541,3.39c0,1.892,0.65,3.379,1.955,4.471c1.3,1.097,3.109,1.643,5.428,1.643
			c3.905,0,7.092-0.91,9.551-2.735c1.378-1.014,2.496-2.308,3.364-3.873c0.868-1.565,1.305-3.509,1.305-5.844V170.472z"/>
		<rect x="506.66" y="117.932" width="15.197" height="77.992"/>
	</g>
	<g>
		<path fill="#009639" d="M82.978,228.228c-1.794,0-3.249-1.737-3.249-3.873V91.246c0-2.142,1.456-3.873,3.249-3.873
			c1.794,0,3.249,1.731,3.249,3.873v133.109C86.228,226.491,84.772,228.228,82.978,228.228"/>
		<path fill="#009639" d="M95.982,235.87c-1.794,0-3.249-1.737-3.249-3.879V83.608c0-2.142,1.456-3.879,3.249-3.879
			c1.794,0,3.249,1.737,3.249,3.879v148.384C99.232,234.133,97.776,235.87,95.982,235.87"/>
		<path fill="#009639" d="M108.987,228.229c-1.794,0-3.249-1.737-3.249-3.879V91.247c0-2.142,1.456-3.873,3.249-3.873
			s3.249,1.731,3.249,3.873V224.35C112.237,226.492,110.781,228.229,108.987,228.229"/>
		<path fill="#009639" d="M161.001,228.229c-1.794,0-3.249-1.737-3.249-3.879V91.247c0-2.142,1.456-3.873,3.249-3.873
			c1.794,0,3.249,1.731,3.249,3.873V224.35C164.251,226.492,162.795,228.229,161.001,228.229"/>
		<path fill="#009639" d="M174.005,235.87c-1.794,0-3.249-1.737-3.249-3.879V83.608c0-2.142,1.456-3.879,3.249-3.879
			s3.249,1.737,3.249,3.879v148.384C177.255,234.133,175.799,235.87,174.005,235.87"/>
		<path fill="#009639" d="M187.008,228.228c-1.794,0-3.249-1.737-3.249-3.873V91.246c0-2.142,1.456-3.873,3.249-3.873
			c1.799,0,3.249,1.731,3.249,3.873v133.109C190.258,226.491,188.807,228.228,187.008,228.228"/>
		<path fill="#009639" d="M121.989,182.381c-1.794,0-3.249-1.737-3.249-3.873v-71.977c0-2.142,1.456-3.879,3.249-3.879
			c1.794,0,3.249,1.737,3.249,3.879v71.977C125.239,180.645,123.783,182.381,121.989,182.381"/>
		<path fill="#009639" d="M134.994,197.663c-1.794,0-3.249-1.731-3.249-3.873v-71.982c0-2.137,1.456-3.873,3.249-3.873
			s3.249,1.737,3.249,3.873v71.982C138.243,195.932,136.787,197.663,134.994,197.663"/>
		<path fill="#009639" d="M147.997,212.946c-1.794,0-3.249-1.737-3.249-3.873v-71.977c0-2.142,1.456-3.879,3.249-3.879
			s3.249,1.737,3.249,3.879v71.977C151.247,211.209,149.791,212.946,147.997,212.946"/>
	</g>
</g>
</svg>
