<?xml version="1.0" encoding="utf-8"?>
<!-- Generator: Adobe Illustrator 19.0.0, SVG Export Plug-In . SVG Version: 6.00 Build 0)  -->
<svg version="1.1" id="Lager_1" xmlns="http://www.w3.org/2000/svg" xmlns:xlink="http://www.w3.org/1999/xlink" x="0px" y="0px"
	 viewBox="0 0 800 400" style="enable-background:new 0 0 800 400;" xml:space="preserve">
<g>
	<path d="M227.5,118.6l-40.8,30.4c-19.3-16.6-44.1-19.8-57.8-19.8c-13.9,0-28.3,4-30.5,13.9c-2.2,9.6,6.8,17.1,22.2,21.3
		c17.6,4.7,33.5,8.9,58.2,15.9c36.6,10.5,61.7,26.3,61.7,63c0,50.6-44.9,76.9-105.2,76.9c-60.2,0-101.3-31.4-113.5-46l43.1-32.2
		c30.3,26.4,51.3,30.1,68.9,30.1c20.2,0,39.1-4.3,41.5-15.7c2-9.2-5.6-16.5-22.8-20.5c-19.5-4.5-35.9-8.1-54.2-12.9
		c-49.7-13-63.7-41.9-63.7-67.8c0-35.7,33.3-72.4,94.1-72.4C191,82.9,227.5,118.6,227.5,118.6 M487.4,86.5H305.6v227.1h185.1v-52.4
		H369.5v-36.6H453v-50.1h-83.5v-36.2h117.9V86.5z M258.6,366h14.1V34h-14.1V366z M514.6,366h14.1V34h-14.1V366z M561.5,313.6h146
		c39,0,70.7-23.5,70.7-61.2c0-29.4-19.2-48.9-46.2-57.5c0,0-1.1-0.3-2.6-0.3c1.5-0.1,2.6-0.5,2.6-0.5c15.4-6.1,32.6-22.4,32.6-50.1
		c0-35.2-31.1-57.6-69.5-57.6H561.5V313.6z M625.7,133.7h51c11.7,0,21.2,9.3,21.2,19.9c0,10.7-9.5,20-21.2,20h-51V133.7z M688,263.1
		l-62.4,0v-41.4H688c11,0,20,8.9,20,20.7C708,254.2,699.1,263.1,688,263.1z"/>
</g>
</svg>
